<?xml version="1.0" encoding="utf-8"?>
<svg contentScriptType="text/ecmascript" xmlns:xlink="http://www.w3.org/1999/xlink" zoomAndPan="magnify" contentStyleType="text/css" viewBox="271.8815000000001 55.50350000000002 579.1184999999999 322.869005" xmlns:cacoo="http://cacoo.com/" preserveAspectRatio="xMidYMin meet" xmlns="http://www.w3.org/2000/svg" version="1.1"><defs><linearGradient xlink:actuate="onLoad" xlink:type="simple" id="id0" xlink:show="other" xmlns:xlink="http://www.w3.org/1999/xlink"><stop stop-opacity="1.0" stop-color="#d3d4dd" offset="0%"/><stop stop-opacity="1.0" stop-color="#ffffff" offset="100%"/></linearGradient><linearGradient x1="0%" xmlns:xlink="http://www.w3.org/1999/xlink" y1="0%" x2="0%" y2="100%" xlink:type="simple" xlink:actuate="onLoad" id="id1" xlink:show="other"><stop stop-opacity="1.0" stop-color="#f7f7f9" offset="0%"/><stop stop-opacity="1.0" stop-color="#ffffff" offset="100%"/></linearGradient><linearGradient x1="0%" xmlns:xlink="http://www.w3.org/1999/xlink" y1="0%" x2="0%" y2="100%" xlink:type="simple" xlink:actuate="onLoad" id="id2" xlink:show="other"><stop stop-opacity="1.0" stop-color="#878da0" offset="0%"/><stop stop-opacity="1.0" stop-color="#757a8a" offset="100%"/></linearGradient><linearGradient x1="0%" xmlns:xlink="http://www.w3.org/1999/xlink" y1="0%" x2="0%" y2="100%" xlink:type="simple" xlink:actuate="onLoad" id="id3" xlink:show="other"><stop stop-opacity="1.0" stop-color="#b4b4b4" offset="0%"/><stop stop-opacity="1.0" stop-color="#e6e7ed" offset="100%"/></linearGradient><linearGradient x1="0%" xmlns:xlink="http://www.w3.org/1999/xlink" y1="0%" x2="0%" y2="100%" xlink:type="simple" xlink:actuate="onLoad" id="id4" xlink:show="other"><stop stop-opacity="1.0" stop-color="#bdbdc2" offset="0%"/><stop stop-opacity="1.0" stop-color="#cfcfcf" offset="100%"/></linearGradient><linearGradient xlink:actuate="onLoad" xlink:type="simple" id="id5" xlink:show="other" xmlns:xlink="http://www.w3.org/1999/xlink"><stop stop-opacity="1.0" stop-color="#cfcfcf" offset="0%"/><stop stop-opacity="1.0" stop-color="#b8b8b8" offset="100%"/></linearGradient><linearGradient x1="0%" xmlns:xlink="http://www.w3.org/1999/xlink" y1="0%" x2="0%" y2="100%" xlink:type="simple" xlink:actuate="onLoad" id="id6" xlink:show="other"><stop stop-opacity="1.0" stop-color="#79b8ff" offset="0%"/><stop stop-opacity="1.0" stop-color="#c7e1ff" offset="100%"/></linearGradient><linearGradient x1="0%" xmlns:xlink="http://www.w3.org/1999/xlink" y1="0%" x2="0%" y2="100%" xlink:type="simple" xlink:actuate="onLoad" id="id7" xlink:show="other"><stop stop-opacity="1.0" stop-color="#c7e1ff" offset="0%"/><stop stop-opacity="1.0" stop-color="#79b8ff" offset="100%"/></linearGradient><linearGradient xlink:actuate="onLoad" xlink:type="simple" id="id8" xlink:show="other" xmlns:xlink="http://www.w3.org/1999/xlink"><stop stop-opacity="1.0" stop-color="#ffffff" offset="0%"/><stop stop-opacity="1.0" stop-color="#e0e0e0" offset="100%"/></linearGradient><linearGradient x1="0%" xmlns:xlink="http://www.w3.org/1999/xlink" y1="0%" x2="0%" y2="100%" xlink:type="simple" xlink:actuate="onLoad" id="id9" xlink:show="other"><stop stop-opacity="1.0" stop-color="#3f3f42" offset="0%"/><stop stop-opacity="1.0" stop-color="#b5b6bb" offset="100%"/></linearGradient><linearGradient x1="0%" xmlns:xlink="http://www.w3.org/1999/xlink" y1="0%" x2="0%" y2="100%" xlink:type="simple" xlink:actuate="onLoad" id="id10" xlink:show="other"><stop stop-opacity="1.0" stop-color="#878da0" offset="0%"/><stop stop-opacity="1.0" stop-color="#616672" offset="100%"/></linearGradient><linearGradient x1="0%" xmlns:xlink="http://www.w3.org/1999/xlink" y1="0%" x2="0%" y2="100%" xlink:type="simple" xlink:actuate="onLoad" id="id11" xlink:show="other"><stop stop-opacity="1.0" stop-color="#3f3f42" offset="0%"/><stop stop-opacity="1.0" stop-color="#b5b6bb" offset="100%"/></linearGradient><linearGradient x1="0%" xmlns:xlink="http://www.w3.org/1999/xlink" y1="0%" x2="0%" y2="100%" xlink:type="simple" xlink:actuate="onLoad" id="id12" xlink:show="other"><stop stop-opacity="1.0" stop-color="#878da0" offset="0%"/><stop stop-opacity="1.0" stop-color="#616672" offset="100%"/></linearGradient><linearGradient x1="0%" xmlns:xlink="http://www.w3.org/1999/xlink" y1="0%" x2="0%" y2="100%" xlink:type="simple" xlink:actuate="onLoad" id="id13" xlink:show="other"><stop stop-opacity="1.0" stop-color="#d3d4dd" offset="0%"/><stop stop-opacity="1.0" stop-color="#ffffff" offset="100%"/></linearGradient><linearGradient xlink:actuate="onLoad" xlink:type="simple" id="id14" xlink:show="other" xmlns:xlink="http://www.w3.org/1999/xlink"><stop stop-opacity="1.0" stop-color="#b8b8b8" offset="0%"/><stop stop-opacity="1.0" stop-color="#b4b4b4" offset="100%"/></linearGradient><linearGradient x1="0%" xmlns:xlink="http://www.w3.org/1999/xlink" y1="0%" x2="0%" y2="100%" xlink:type="simple" xlink:actuate="onLoad" id="id15" xlink:show="other"><stop stop-opacity="1.0" stop-color="#b8b8b8" offset="0%"/><stop stop-opacity="1.0" stop-color="#e6e7ed" offset="100%"/></linearGradient><linearGradient x1="0%" xmlns:xlink="http://www.w3.org/1999/xlink" y1="0%" x2="0%" y2="100%" xlink:type="simple" xlink:actuate="onLoad" id="id16" xlink:show="other"><stop stop-opacity="1.0" stop-color="#b8b8b8" offset="0%"/><stop stop-opacity="1.0" stop-color="#e6e7ed" offset="100%"/></linearGradient><linearGradient x1="0%" xmlns:xlink="http://www.w3.org/1999/xlink" y1="0%" x2="0%" y2="100%" xlink:type="simple" xlink:actuate="onLoad" id="id17" xlink:show="other"><stop stop-opacity="1.0" stop-color="#79b8ff" offset="0%"/><stop stop-opacity="1.0" stop-color="#c7e1ff" offset="100%"/></linearGradient><linearGradient x1="0%" xmlns:xlink="http://www.w3.org/1999/xlink" y1="0%" x2="0%" y2="100%" xlink:type="simple" xlink:actuate="onLoad" id="id18" xlink:show="other"><stop stop-opacity="1.0" stop-color="#e6e7ed" offset="0%"/><stop stop-opacity="1.0" stop-color="#b8b8b8" offset="100%"/></linearGradient><linearGradient xlink:actuate="onLoad" xlink:type="simple" id="id19" xlink:show="other" xmlns:xlink="http://www.w3.org/1999/xlink"><stop stop-opacity="1.0" stop-color="#e6e7ed" offset="0%"/><stop stop-opacity="1.0" stop-color="#b8b8b8" offset="100%"/></linearGradient><linearGradient x1="0%" xmlns:xlink="http://www.w3.org/1999/xlink" y1="0%" x2="0%" y2="100%" xlink:type="simple" xlink:actuate="onLoad" id="id20" xlink:show="other"><stop stop-opacity="1.0" stop-color="#79b8ff" offset="0%"/><stop stop-opacity="1.0" stop-color="#c7e1ff" offset="100%"/></linearGradient><linearGradient x1="0%" xmlns:xlink="http://www.w3.org/1999/xlink" y1="0%" x2="0%" y2="100%" xlink:type="simple" xlink:actuate="onLoad" id="id21" xlink:show="other"><stop stop-opacity="1.0" stop-color="#c7e1ff" offset="0%"/><stop stop-opacity="1.0" stop-color="#79b8ff" offset="100%"/></linearGradient><linearGradient x1="0%" xmlns:xlink="http://www.w3.org/1999/xlink" y1="0%" x2="0%" y2="100%" xlink:type="simple" xlink:actuate="onLoad" id="id22" xlink:show="other"><stop stop-opacity="1.0" stop-color="#e6e7ed" offset="0%"/><stop stop-opacity="1.0" stop-color="#b8b8b8" offset="100%"/></linearGradient><linearGradient x1="0%" xmlns:xlink="http://www.w3.org/1999/xlink" y1="0%" x2="0%" y2="100%" xlink:type="simple" xlink:actuate="onLoad" id="id23" xlink:show="other"><stop stop-opacity="1.0" stop-color="#e6e7ed" offset="0%"/><stop stop-opacity="1.0" stop-color="#b8b8b8" offset="100%"/></linearGradient><linearGradient x1="0%" xmlns:xlink="http://www.w3.org/1999/xlink" y1="0%" x2="0%" y2="100%" xlink:type="simple" xlink:actuate="onLoad" id="id24" xlink:show="other"><stop stop-opacity="1.0" stop-color="#e6e7ed" offset="0%"/><stop stop-opacity="1.0" stop-color="#b8b8b8" offset="100%"/></linearGradient><linearGradient x1="0%" xmlns:xlink="http://www.w3.org/1999/xlink" y1="0%" x2="0%" y2="100%" xlink:type="simple" xlink:actuate="onLoad" id="id25" xlink:show="other"><stop stop-opacity="1.0" stop-color="#e6e7ed" offset="0%"/><stop stop-opacity="1.0" stop-color="#b8b8b8" offset="100%"/></linearGradient><linearGradient x1="0%" xmlns:xlink="http://www.w3.org/1999/xlink" y1="0%" x2="0%" y2="100%" xlink:type="simple" xlink:actuate="onLoad" id="id26" xlink:show="other"><stop stop-opacity="1.0" stop-color="#4e515c" offset="0%"/><stop stop-opacity="1.0" stop-color="#050506" offset="100%"/></linearGradient><linearGradient x1="0%" xmlns:xlink="http://www.w3.org/1999/xlink" y1="0%" x2="0%" y2="100%" xlink:type="simple" xlink:actuate="onLoad" id="id27" xlink:show="other"><stop stop-opacity="1.0" stop-color="#050506" offset="0%"/><stop stop-opacity="1.0" stop-color="#4e515c" offset="100%"/></linearGradient><linearGradient x1="0%" xmlns:xlink="http://www.w3.org/1999/xlink" y1="0%" x2="0%" y2="100%" xlink:type="simple" xlink:actuate="onLoad" id="id28" xlink:show="other"><stop stop-opacity="1.0" stop-color="#000000" offset="0%"/><stop stop-opacity="1.0" stop-color="#4e515c" offset="100%"/></linearGradient><linearGradient x1="0%" xmlns:xlink="http://www.w3.org/1999/xlink" y1="0%" x2="0%" y2="100%" xlink:type="simple" xlink:actuate="onLoad" id="id29" xlink:show="other"><stop stop-opacity="1.0" stop-color="#c7e1ff" offset="0%"/><stop stop-opacity="1.0" stop-color="#79b8ff" offset="100%"/></linearGradient><linearGradient x1="0%" xmlns:xlink="http://www.w3.org/1999/xlink" y1="0%" x2="0%" y2="100%" xlink:type="simple" xlink:actuate="onLoad" id="id30" xlink:show="other"><stop stop-opacity="1.0" stop-color="#d3d4dd" offset="0%"/><stop stop-opacity="1.0" stop-color="#ffffff" offset="100%"/></linearGradient><linearGradient xlink:actuate="onLoad" xlink:type="simple" id="id31" xlink:show="other" xmlns:xlink="http://www.w3.org/1999/xlink"><stop stop-opacity="1.0" stop-color="#e0e0e0" offset="0%"/><stop stop-opacity="1.0" stop-color="#bababa" offset="100%"/></linearGradient><linearGradient xlink:actuate="onLoad" xlink:type="simple" id="id32" xlink:show="other" xmlns:xlink="http://www.w3.org/1999/xlink"><stop stop-opacity="1.0" stop-color="#d6d6d6" offset="0%"/><stop stop-opacity="1.0" stop-color="#afafaf" offset="100%"/></linearGradient><linearGradient xlink:actuate="onLoad" xlink:type="simple" id="id33" xlink:show="other" xmlns:xlink="http://www.w3.org/1999/xlink"><stop stop-opacity="1.0" stop-color="#e0e0e0" offset="0%"/><stop stop-opacity="1.0" stop-color="#bababa" offset="100%"/></linearGradient><linearGradient xlink:actuate="onLoad" xlink:type="simple" id="id34" xlink:show="other" xmlns:xlink="http://www.w3.org/1999/xlink"><stop stop-opacity="1.0" stop-color="#e0e0e0" offset="0%"/><stop stop-opacity="1.0" stop-color="#bababa" offset="100%"/></linearGradient><linearGradient x1="0%" xmlns:xlink="http://www.w3.org/1999/xlink" y1="0%" x2="0%" y2="100%" xlink:type="simple" xlink:actuate="onLoad" id="id35" xlink:show="other"><stop stop-opacity="1.0" stop-color="#fff20d" offset="0%"/><stop stop-opacity="1.0" stop-color="#ffcc33" offset="100%"/></linearGradient><linearGradient xlink:actuate="onLoad" xlink:type="simple" id="id36" xlink:show="other" xmlns:xlink="http://www.w3.org/1999/xlink"><stop stop-opacity="1.0" stop-color="#d3d3d3" offset="0%"/><stop stop-opacity="1.0" stop-color="#dddddd" offset="100%"/></linearGradient><linearGradient xlink:actuate="onLoad" xlink:type="simple" id="id37" xlink:show="other" xmlns:xlink="http://www.w3.org/1999/xlink"><stop stop-opacity="1.0" stop-color="#d3d3d3" offset="0%"/><stop stop-opacity="1.0" stop-color="#dddddd" offset="100%"/></linearGradient><linearGradient xlink:actuate="onLoad" xlink:type="simple" id="id38" xlink:show="other" xmlns:xlink="http://www.w3.org/1999/xlink"><stop stop-opacity="1.0" stop-color="#d3d3d3" offset="0%"/><stop stop-opacity="1.0" stop-color="#dddddd" offset="100%"/></linearGradient></defs><g><g transform="translate(287.0345000000001 89.25450000000001)"><path fill="#d3d4dd" fill-opacity="1.0" d="M-0.153 23.59 L26.631 29.241001 L26.631 74.53 L-0.153 68.681 L-0.153 23.59 L-0.153 23.59z" stroke="none"/><path fill="url(#id0)" d="M2.298000107 68.265 Q2.648187707 68.33947052 3.262363507 68.4698645 Q4.490808507 68.73067535 5.810656607 69.0103003 Q10.034425007000001 69.9051291 13.590251007 70.6528784 Q18.568233007 71.6996771 21.499219007 72.3027655 Q25.162816007 73.0565955 25.399999007 73.0700003 Q26.275998007000002 73.119004 26.337998007 71.7470023 L26.774999007 74.5640036 L-0.025999993 68.47899689 L2.2980000069999997 68.265 L2.298000107 68.265z" stroke="none"/><path fill="#d3d4dd" fill-opacity="1.0" d="M58.842997999999994 5.093 L25.999 28.288 L26.630999969999998 74.263 L58.91 50.191002999999995 L58.842997999999994 5.093 L58.842997999999994 5.093z" stroke="none"/><path fill="#c8c8ce" fill-opacity="1.0" d="M58.842998 5.093 Q58.588108000000005 5.4314061 58.138294 6.057797 Q57.23867 7.3105775 56.26406 8.7504998 Q54.8996 10.7664023 53.580107999999996 12.8685775 Q51.930735999999996 15.496309 50.44625 18.1095 Q46.66756 24.761255 44.268057999999996 30.74975 Q41.268684 38.235376 40.607997 44.251000000000005 Q39.946971 50.26627499999999 37.612831 56.32261 Q35.745513 61.167680000000004 32.898376 65.818628 Q30.864715 69.14072 28.5444846 72.033575 Q27.8194212 72.93759 27.1527018 73.6902 Q26.81934305 74.066495 26.631 74.262 L58.910000000000004 50.191002999999995 L58.842998 5.093 L58.842998 5.093z" stroke="none"/><path fill="#dcdde2" fill-opacity="1.0" d="M58.45500301 5.093 L26.63100101 28.769 L0.09200001 23.235 L33.15400001 0.0 L58.45500301 5.093 L58.45500301 5.093z" stroke="none"/><path fill="url(#id1)" d="M27.844 29.374001 L58.723 5.6750002 L58.438 4.921 L26.59 27.658001 Q26.157 27.982 25.489 27.855002 Q25.34111 27.827143 21.324938 27.100203 Q18.11424 26.519057 12.58325 25.518624 Q10.440855 25.131111999999998 7.9515 24.680906999999998 Q5.99038 24.326233 3.9221873 23.952234999999998 Q2.334902 23.6652 1.0775936 23.437851 Q0.39154685 23.313797 0.0 23.243 L0.0 23.868 Q0.39746875 23.952015 1.0937071 24.099217 Q2.4857793 24.393534 3.9800315 24.709547999999998 Q6.0691338 25.151364 8.066778 25.574009999999998 Q10.560119 26.101532 12.761751 26.567626 Q18.364262 27.753693 21.607594 28.44239 Q25.662436 29.303406 25.78 29.334 Q26.122002 29.422 26.203001 29.869 L26.203001 74.37100500000001 L26.631 74.263 Q27.468 74.10401 27.468 72.79400000000001 Q27.468 71.50955400000001 27.468493 68.799136 Q27.468834 66.923224 27.469688 62.96817 Q27.469868 62.138293 27.470047 61.308417 Q27.470232 60.449454 27.470417 59.59049 Q27.470848 57.582915 27.471165 56.025397 Q27.47201 51.869406 27.4725 48.695124 Q27.4738 40.279759999999996 27.473063 35.769269 Q27.472137 30.114659 27.468 29.985001 Q27.454 29.563 27.844 29.374001 L27.844 29.374001z" stroke="none"/><path fill="#878da0" fill-opacity="1.0" d="M1.14 26.607 L24.987000000000002 31.5050007 L24.987000000000002 51.048 Q24.606375 51.098312 23.927079 51.154467999999994 Q22.568484 51.26678 21.075125 51.296001000000004 Q18.984421 51.336906 16.92286 51.205780000000004 Q14.345905 51.041874 11.962 50.617000000000004 Q7.627615 49.846374 3.9503752 47.712627 Q2.8012501 47.04584 1.8557031 46.322738 Q1.38293745 45.961189000000005 1.14 45.733001 L1.14 26.607 L1.14 26.607z" stroke="none"/><path fill="#e1e1e5" fill-opacity="1.0" d="M11.96199996 51.138000999999996 Q7.627619660000001 50.366123699999996 3.95037496 48.2313772 Q2.80121886 47.5642591 1.85570316 46.84092004 Q1.38293746 46.4792486 1.13999998 46.251 L0.84099996 47.362000099999996 Q1.08387494 47.5901876 1.55654666 47.9517828 Q2.50189056 48.6749693 3.65087496 49.341999599999994 Q7.32762496 51.476501999999996 11.66199996 52.249001 Q14.045905959999999 52.673187999999996 16.62285996 52.836780999999995 Q18.68442196 52.967655699999995 20.775123960000002 52.9267507 Q22.26848296 52.897534 23.62707996 52.7853437 Q24.306373960000002 52.7292524 24.68699996 52.6790014 L24.986999960000002 51.5680013 Q24.60637496 51.6183134 23.927078960000003 51.674485 Q22.568483960000002 51.786827599999995 21.07512496 51.8161245 Q18.98442096 51.85714 16.92285996 51.726204499999994 Q14.34590596 51.562531 11.96199996 51.138000999999996 L11.96199996 51.138000999999996z" stroke="none"/><path fill="url(#id2)" d="M24.0939988 40.584 Q23.7832028 40.66784323 23.2369588 40.812847500000004 Q22.1444738 41.10285605 20.9672328 41.408657440000006 Q17.2000808 42.38721880000001 13.9981253 43.15675 Q9.5153908 44.234093 6.8034538 44.739468 Q3.41352843 45.371185700000005 3.0 45.068001 Q2.768386355 44.898716300000004 2.712500087 45.312126500000005 Q2.6566708 45.725113300000004 2.83299994 45.860001000000004 Q4.2219124 46.9127773 6.132 47.821625000000004 Q9.2140915 49.288132000000004 12.7069998 49.865002000000004 Q16.1688178 50.436356 19.9845008 50.464501000000006 Q22.3684818 50.48208700000001 24.4389988 50.296002 L24.4389988 40.584 L24.0939988 40.584z" stroke="none"/><path fill="url(#id3)" d="M58.7219996293945 70.566002 Q59.02393673 70.353005 59.50257824 70.01589200000001 Q60.4598536 69.34167500000001 61.3433757 68.721131 Q64.1706233 66.735382 65.1999965 66.031006 Q67.058471 64.759972 66.3189998 62.6760066 Q65.934623 61.5935062 65.1653743 59.734505000000006 Q64.780746 58.80500825 64.472999 58.092007 L90.783996 63.2440074 Q91.050872 63.6936343 91.43571399999999 64.395165 Q92.20540600000001 65.7982257 92.795249 67.057755 Q94.68274600000001 71.088257 94.063995 72.172005 Q93.445869 73.254502 89.188621 75.845505 Q87.858238 76.65519 86.32357 77.51857000000001 Q85.556243 77.95025700000001 85.054992 78.220002 L59.35199307 71.793 L58.721992 70.566002 L58.7219996293945 70.566002z" stroke-width="1.0" stroke-linejoin="round" stroke="#aaaaaa"/><path fill="#ffffff" fill-opacity="1.0" d="M61.722001 71.24099383 Q62.079533500000004 71.32896075 62.7062768 71.48290666999999 Q63.9598168 71.7908138 65.3058328 72.1206783 Q69.613175 73.176289 73.231126 74.05599629999999 Q78.29612 75.28754099999999 81.258607 75.99130659999999 Q84.961656 76.87099099999999 85.149003 76.87099099999999 Q85.489625 76.87099099999999 86.35238 76.325993 Q86.783753 76.053494 87.147004 75.7809947 Q87.43744000000001 75.58362229999999 87.857224 75.29433859999999 Q88.696786 74.71577869999999 89.343507 74.25624499999999 Q91.413003 72.78574789999999 90.778 73.05699569999999 Q90.587624 73.1386302 89.481439 73.65299639999999 Q88.453362 74.13103899999999 87.759248 74.419247 Q85.516122 75.3506206 84.604005 75.23699599999999 Q84.120171 75.17605999999999 80.18593 74.4845088 Q78.62111 74.209454 76.294633 73.7967647 Q74.833047 73.5375026 72.00538 73.0346187 Q69.0786904 72.51412619999999 67.860833 72.2980236 Q65.7029046 71.9150966 64.4036416 71.6869167 Q61.17669 71.12019 61.7220048 71.24099383 L61.722001 71.24099383z" stroke="none"/><path fill="url(#id4)" d="M95.487 69.679001 Q94.58075 67.647751 91.907753 62.2297513 Q91.07247000000001 60.536693299999996 90.16069 58.7079999 Q89.704811 57.793685599999996 89.416 57.218002 L86.980003 58.336002 Q87.331253 58.9763142 87.866302 59.959220599999995 Q88.936386 61.9250256 89.855377 63.638 Q92.796127 69.1195065 93.123 70.016998 Q93.744102 71.727386 92.042 72.797996 Q91.908615 72.881637 89.727997 74.341247 Q87.64151 75.73784599999999 86.679 76.326996 Q85.515823 77.038536 84.342003 76.803992 Q83.977287 76.731117 79.891266 75.739868 Q76.622558 74.94689199999999 71.134125 73.605492 Q68.978409 73.078621 66.548576 72.483833 Q64.6048583 72.00804099999999 62.5759238 71.510864 Q61.1290816 71.15632599999999 59.7793425 70.82534 Q59.10573566 70.66014799999999 58.722 70.565994 L58.722 73.378997 Q59.1069678 73.476043 59.7827872 73.64627 Q61.1343154 73.986694 62.5886725 74.352607 Q64.6238326 74.864654 66.57493600000001 75.35479699999999 Q69.012512 75.967148 71.176872 76.50962 Q76.685516 77.890312 79.968887 78.70432199999999 Q84.073341 79.721901 84.44699800000001 79.791 Q85.98072 80.072303 87.226997 79.332 Q87.610016 79.104744 90.34787 77.284126 Q92.443375 75.890655 93.432 75.224998 Q96.91331500000001 72.880783 95.488 69.67999999999999 L95.487 69.679001z" stroke="none"/><path fill="url(#id5)" d="M91.232003 73.332004 Q91.06823800000001 73.4418596 90.741585 73.66151 Q90.355614 73.92104660000001 90.188286 74.03342760000001 Q89.484826 74.5058702 88.973755 74.84537830000001 Q87.481553 75.836658 86.67800199999999 76.328006 Q85.514824 77.0395464 84.341003 76.8050035 Q83.904038 76.71792930000001 62.405003 71.492 L62.405003 74.381 Q84.316391 79.767139 84.445008 79.791004 Q85.97873 80.07230700000001 87.225007 79.33200400000001 Q87.670998 79.066623 91.231003 76.69400350000001 L91.231003 73.332004 L91.232003 73.332004z" stroke="none"/><path fill="none" d="M33.541 0.0 L0.0 23.243 L0.0 68.457 L26.775 74.564 L58.91 50.191 L58.91 5.017 L33.541 0.0 L33.541 0.0z" stroke-width="1.0" stroke-linejoin="round" stroke="#aaaaaa"/><path fill="none" d="M3.6230001 20.761 L3.6230001 20.761z" stroke-width="1.0" stroke-linejoin="round" stroke="#aaaaaa"/><path fill="none" d="M30.069 26.18 L30.069 26.18z" stroke-width="1.0" stroke-linejoin="round" stroke="#aaaaaa"/><path fill="none" d="M95.487 69.679001 Q94.58075 67.647751 91.907753 62.2297513 Q91.07247000000001 60.536693299999996 90.16069 58.7079999 Q89.704811 57.793685599999996 89.416 57.218002 L86.980003 58.336002 Q87.331253 58.9763142 87.866302 59.959220599999995 Q88.936386 61.9250256 89.855377 63.638 Q92.796127 69.1195065 93.123 70.016998 Q93.744102 71.727386 92.042 72.797996 Q91.908615 72.881637 89.727997 74.341247 Q87.64151 75.73784599999999 86.679 76.326996 Q85.515823 77.038536 84.342003 76.803992 Q83.977287 76.731117 79.891266 75.739868 Q76.622558 74.94689199999999 71.134125 73.605492 Q68.978409 73.078621 66.548576 72.483833 Q64.6048583 72.00804099999999 62.5759238 71.510864 Q61.1290816 71.15632599999999 59.7793425 70.82534 Q59.10573566 70.66014799999999 58.722 70.565994 L58.722 73.378997 Q59.1069678 73.476043 59.7827872 73.64627 Q61.1343154 73.986694 62.5886725 74.352607 Q64.6238326 74.864654 66.57493600000001 75.35479699999999 Q69.012512 75.967148 71.176872 76.50962 Q76.685516 77.890312 79.968887 78.70432199999999 Q84.073341 79.721901 84.44699800000001 79.791 Q85.98072 80.072303 87.226997 79.332 Q87.610016 79.104744 90.34787 77.284126 Q92.443375 75.890655 93.432 75.224998 Q96.91331500000001 72.880783 95.488 69.67999999999999 L95.487 69.679001z" stroke-width="1.0" stroke-linejoin="round" stroke="#aaaaaa"/><path fill="#e6e7ed" fill-opacity="1.0" d="M48.129001599999995 8.235 L42.882 10.161999999999999 L42.882 54.766998 L103.207 68.16499999999999 L107.13101 65.64 L107.13101 19.857000999999997 L48.129001599999995 8.235 L48.129001599999995 8.235z" stroke="none"/><path fill="url(#id6)" d="M99.10199800000001 63.516997 L46.531998 52.170997 L46.531998 14.580997 L99.10199800000001 25.419998 L99.10199800000001 63.516997 L99.10199800000001 63.516997z" stroke="none"/><path fill="url(#id7)" d="M99.10199800000001 42.164001 Q88.077492 31.508003 72.76400000000001 31.508003 Q57.539048 31.508003 46.531998 42.061004 L46.531998 52.172004 L99.10199800000001 63.518005 L99.10199800000001 42.164001 L99.10199800000001 42.164001z" stroke="none"/><path fill="#d2d2d2" fill-opacity="1.0" d="M106.9660005 20.196 L102.953 22.0889996 L102.953 68.043 L106.9660005 65.522004 L106.9660005 20.196 L106.9660005 20.196z" stroke="none"/><path fill="#d7d9de" fill-opacity="1.0" d="M107.170995 20.082 L102.488 22.607 L43.189 10.2159993 L48.3340005 8.120999 L107.17101 20.080999 L107.170995 20.082z" stroke="none"/><path fill="#92949b" fill-opacity="1.0" d="M47.33500085 51.476 L47.33500085 14.582 L46.531 51.910000000000004 L99.101 63.516998 L99.327997 62.501 L47.33500085 51.476 L47.33500085 51.476z" stroke="none"/><path fill="none" d="M99.10199800000001 63.516997 L46.531998 52.170997 L46.531998 14.580997 L99.10199800000001 25.419998 L99.10199800000001 63.516997 L99.10199800000001 63.516997z" stroke-width="1.0" stroke-linejoin="round" stroke="#aaaaaa"/><path fill="none" d="M48.129001599999995 8.235 L42.882 10.161999999999999 L42.882 54.766998 L103.207 68.16499999999999 L107.13101 65.64 L107.13101 19.857000999999997 L48.129001599999995 8.235 L48.129001599999995 8.235z" stroke-width="1.0" stroke-linejoin="round" stroke="#aaaaaa"/><path fill="url(#id8)" d="M106.60500300000001 20.375999999999998 L102.245003 22.459 Q101.357452 22.275906 99.803894 21.95542 Q96.696777 21.314448 93.366707 20.627484000000003 Q88.38909100000001 19.600647000000002 84.262634 18.749399 Q78.550674 17.5710795 73.820877 16.5953753 Q67.610763 15.314297 63.37064 14.4396146 Q57.99081 13.3298266 54.241112 12.556328 Q45.3228072 10.71663408 45.2610015 10.7039998 Q44.080097127 10.456075 44.062000203000004 10.629 Q44.052967 10.71431189 45.2610015 11.02800016 Q45.323219200000004 11.0444997 54.117363000000005 13.034031200000001 Q57.856838 13.880027 63.120041 15.0703013 Q67.704422 16.10706 73.424881 17.4004996 Q78.23642699999999 18.48843 83.72122200000001 19.728448999999998 Q88.135734 20.726492 92.698457 21.757969000000003 Q95.97821 22.499409 99.045927 23.192878999999998 Q100.577835 23.539171500000002 101.453003 23.737000000000002 Q101.476532 24.397531999999998 101.517717 25.553688 Q101.600059 27.865609 101.68831700000001 30.344140000000003 Q101.811927 33.815503 101.929512 37.118928 Q102.07646199999999 41.247289 102.206001 44.888627 Q102.535447 54.14911 102.723694 59.455045 Q102.959 66.087785 102.959 66.128 Q103.096001 66.109498 103.233002 66.090997 Q103.233002 65.119119 103.233002 64.147249 Q103.233002 61.689237 103.233002 59.231232999999996 Q103.233002 51.848802 103.233002 44.466370999999995 Q103.233002 40.537935 103.233002 36.609498 Q103.233002 33.18691 103.233002 29.764322 Q103.233002 27.345575000000004 103.233002 24.926827 Q103.233002 23.759605999999998 103.233002 23.092995000000002 L106.60500300000001 20.375996 L106.60500300000001 20.375999999999998z" stroke="none"/><path fill="url(#id9)" d="M22.243000000000002 34.8860006 L3.094 31.033 L3.094 35.2750006 L22.243000000000002 39.128001 L22.243000000000002 34.8860006 L22.243000000000002 34.8860006z" stroke="none"/><path fill="url(#id10)" d="M22.2280004 35.127998500000004 L3.3360004 31.317999 L3.3360004 35.0589982 L22.2280004 38.8689996 L22.2280004 35.127998500000004 L22.2280004 35.127998500000004z" stroke="none"/><path fill="url(#id11)" d="M22.277 40.1899968 L3.094 36.337 L3.094 40.580000000000005 L22.278000000000002 44.434000000000005 L22.278000000000002 40.1899968 L22.277 40.1899968z" stroke="none"/><path fill="url(#id12)" d="M22.227999999999998 40.430998699999996 L3.336 36.623 L3.336 40.3630017 L22.227999999999998 44.1740025 L22.227999999999998 40.432002 L22.227999999999998 40.430998699999996z" stroke="none"/><path fill="url(#id13)" d="M12.6999997 51.67300017 Q14.1661081 51.43116744 15.8349987 51.253002 Q15.870998700000001 51.6742018 15.870998700000001 51.603000470000005 Q15.870998700000001 55.791999700000005 11.6749983 55.791999700000005 Q8.66030595 55.791999700000005 7.7089977 52.907001300000005 Q10.1602449 52.0910223 12.6999977 51.67300017 L12.6999997 51.67300017z" stroke="none"/><path fill="#878da0" fill-opacity="1.0" d="M12.6999997 49.9289995 Q14.1661081 50.170832000000004 15.8349987 50.348997700000005 Q15.870998700000001 49.927798 15.870998700000001 49.998999000000005 Q15.870998700000001 45.81 11.6749983 45.81 Q8.659976 45.81 7.7089977 48.693998900000004 Q10.1661863 49.511954 12.6999977 49.9289995 L12.6999997 49.9289995z" stroke="none"/><path fill="#616672" fill-opacity="1.0" d="M15.399999399999999 50.803999000000005 Q15.399999399999999 54.992998 11.6739998 54.992998 Q7.9489994 54.992998 7.9489994 50.803999000000005 Q7.9489994 46.615 11.6739998 46.615 Q15.399999399999999 46.615 15.399999399999999 50.803999000000005 L15.399999399999999 50.803999000000005z" stroke="none"/><path fill="#878da0" fill-opacity="1.0" d="M14.6090004 50.804001 Q14.6090004 54.306000000000004 11.674 54.306000000000004 Q8.74 54.306000000000004 8.74 50.804001 Q8.74 47.302002 11.674 47.302002 Q14.6089995 47.302002 14.6089995 50.804001 L14.6090004 50.804001z" stroke="none"/><path fill="#e1e1e5" fill-opacity="1.0" d="M11.9960003 48.229998380000005 Q12.8472157 48.229998380000005 13.560000500000001 48.7979992 Q12.802352899999999 47.734 11.6750002 47.734 Q9.1710005 47.734 9.1710005 50.795000800000004 Q9.1710005 50.9113148 9.206000347 51.2110012 Q9.50808718 48.23100165 11.9969998 48.23100165 L11.9960003 48.229998380000005z" stroke="none"/></g><g transform="translate(456.43000000000006 90.50350000000002)"><path fill="url(#id14)" d="M54.87599933 77.34700000000001 Q57.80551933 77.886506 59.48199833 76.889 Q62.582431330000006 75.04528 70.63712533 69.740754 Q75.02076533 66.853836 77.86547533 64.852341 Q81.32267533 62.4199223 82.17399533 61.5260014 L82.72900033 57.091 Q81.73673533 58.191761400000004 77.96873133 60.3092808 Q74.98882533 61.98391 70.21961533 64.3212513 Q68.41508133 65.205635 66.25394533000001 66.233986 Q64.88006533000001 66.887734 62.77669933 67.876091 Q59.23064833 69.542366 58.93499733 69.723 Q57.772115330000005 70.434357 56.596995330000006 70.199997 Q56.93178133 70.266228 49.871387330000005 69.113869 Q46.31335533 68.53315 42.85243233 67.9513325 Q38.46589533 67.21390600000001 34.35437033 66.494744 Q29.478046329999998 65.641816 25.09595533 64.8333134 Q20.08330933 63.908486 15.79592133 63.056248000000004 Q5.71144863 61.0516743 -0.05400467 59.5119976 L-0.05400467 62.1789974 L0.08899532999999998 63.186997 L0.81299533 63.7789997 L54.87599533 77.348 L54.87599933 77.34700000000001z" stroke="none"/><path fill="#ffffff" fill-opacity="1.0" d="M1.5150001 60.2180002 Q2.3797033 60.4185465 3.8939962 60.7695025 Q6.9225817 61.4714182 10.1705317 62.2234705 Q14.7182687 63.2764795 19.053926699999998 64.2790774 Q24.4746477 65.5325792 29.2534997 66.6355 Q34.9031947 67.939401 39.4785727 68.99193 Q44.7097207 70.195307 48.438467700000004 71.047533 Q57.2129977 73.053003 57.3999977 73.053003 Q57.7412477 73.053003 58.6042477 72.508005 Q59.0357477 72.235506 59.3989977 71.963007 Q59.764343700000005 71.7376955 60.4017107 71.344248 Q61.6763677 70.557405 63.036559700000005 69.716692 Q64.9410177 68.539583 66.7436277 67.423418 Q68.9973477 66.027941 70.9629977 64.8075045 Q75.9667377 61.7007883 78.6989377 59.98007 Q82.1142477 57.82913 81.7649977 57.97900564 Q81.4012277 58.1346224 77.5396727 60.33436 Q77.2240377 60.514158 75.7156527 61.374109 Q74.5126727 62.0599497 73.70656770000001 62.5186747 Q71.2442077 63.919893 69.3771177 64.9711245 Q64.1592777 67.908953 61.1810117 69.471575 Q57.3524857 71.480318 56.8549977 71.418001 Q56.3600347 71.356005 47.3652037 69.5401705 Q43.6039657 68.78087 38.2753977 67.698557 Q33.8281177 66.795244 28.026876700000003 65.61362629999999 Q25.648707700000003 65.1292284 22.875419700000002 64.563936 Q20.7165077 64.1238726 17.923061699999998 63.554238999999995 Q16.9030147 63.346239 15.5724567 63.0748957 Q13.8702357 62.727758 13.3327297 62.6181505 Q10.7973667 62.1011294 9.2673607 61.7892664 Q1.0172577 60.1076449 1.51399995 60.2180002 L1.5150001 60.2180002z" stroke="none"/><path fill="none" d="M82.59400499 57.1759994507 L0.005999980000000002 58.9650009 L0.005999980000000002 62.245999 Q-0.06400001 63.431999999999995 0.83299995 63.666000999999994 Q3.81919299 64.451623 12.823827990000002 66.711457 Q16.61878299 67.66385 21.512799989999998 68.8856285 Q25.68566199 69.92738399999999 30.763373989999998 71.19137649999999 Q34.72020999 72.176354 39.64996299 73.401635 Q41.387369989999996 73.833466 43.66751799 74.40001 Q44.24543999 74.54360299999999 45.51924399 74.860085 Q46.720419989999996 75.158524 47.24698599 75.28936 Q54.60224499 77.116936 54.86999999 77.189004 Q57.140673989999996 77.80018 59.47799599 76.731004 Q59.98092999 76.500062 68.92536999 70.646882 Q73.01039399 67.973664 76.08145399 65.91960999999999 Q79.72412399 63.483242999999995 81.21299999 62.402001 Q82.56899999 61.417901 82.56899999 60.2729996 L82.59200599 57.175 L82.59400499 57.1759994507z" stroke-width="1.0" stroke-linejoin="round" stroke="#aaaaaa"/><path fill="url(#id15)" d="M0.8030000000000002 60.129002 Q35.48901 69.005829 55.374001 72.987 Q57.470237000000004 73.407036 58.931000000000004 72.509003 Q59.097561000000006 72.40668500000001 60.12815500000001 71.78355400000001 Q61.479067 70.966751 62.44486700000001 70.3806 Q66.10295699999999 68.160492 69.147007 66.276504 Q73.450637 63.612931 76.457377 61.665409000000004 Q80.191017 59.24704800000001 81.795997 58.016003000000005 Q83.482727 56.808102000000005 81.85900099999999 56.337002000000005 Q81.510227 56.235653 73.767997 54.654438 Q67.168053 53.306515000000005 56.341751 51.116753 Q33.353054 46.466984100000005 25.582000999999998 44.92600281 Q24.838001 44.778004 24.019001 45.160003970000005 Q23.673861 45.35489685 23.067083 45.697445200000004 Q21.8363 46.3922694 20.545345 47.120846 Q18.711378 48.155884 16.954811 49.146824 Q14.749559000000001 50.390881 12.7965 51.492001 Q7.810370499999999 54.303139 4.7806564 56.006409000000005 Q0.9953901999999999 58.134438 0.506 58.397000000000006 Q-1.581253 59.517731000000005 0.8030000000000002 60.128998 L0.8030000000000002 60.129002z" stroke-width="1.0" stroke-linejoin="round" stroke="#aaaaaa"/><path fill="#969696" fill-opacity="1.0" d="M73.302003 56.998001 L60.537003 64.109001 L13.287002854999999 53.885002 L60.470000999999996 64.876999 L73.286003 57.294998 L73.302003 56.998001z" stroke-width="1.0" stroke-linejoin="round" stroke="#969696"/><path fill="#b7b7b7" fill-opacity="1.0" d="M25.404 46.988 L13.379 53.836999 L60.601 64.352998 L73.246996 56.897996 L25.403996 46.988995636 L25.404 46.988z" stroke-width="1.0" stroke-linejoin="round" stroke="#969696"/><path fill="url(#id16)" d="M29.2740005 59.208 L22.445 63.122001499999996 L35.928002 66.20700049999999 L42.746003 62.229 L29.273003 59.208 L29.2740005 59.208z" stroke-width="1.0" stroke-linejoin="round" stroke="#aaaaaa"/><path fill="#dbdbdb" fill-opacity="1.0" d="M24.5450004 61.893 L22.445 63.1220001 L35.928002 66.206999 L38.018002 64.9159988 L24.5440028 61.8939994507 L24.5450004 61.893z" stroke-width="1.0" stroke-linejoin="round" stroke="#aaaaaa"/><path fill="url(#id17)" d="M26.841 41.287999400000004 L28.723000000000003 3.3829994 L83.637 11.408999399999999 L80.618004 51.7740024 L26.841 41.287999400000004 L26.841 41.287999400000004z" stroke="none"/><path fill="url(#id18)" d="M86.431 8.50000032 L28.75 0.0 Q27.1776332 -0.35242718 26.569000199999998 0.7000001199999999 Q26.2374095 1.01218042 26.2140006 1.4950002199999999 L23.91600029 42.32500282 Q23.85083 43.69899282 25.225999799999997 44.007002820000004 L82.296997 55.55200282 Q82.439064 55.58389282 82.582 55.58700282 Q84.75316 55.71138282 84.832 54.05800282 L87.739998 10.18300282 Q87.80510699999999 8.80858382 86.431 8.50000032 L86.431 8.50000032z" stroke="none"/><path fill="url(#id19)" d="M27.0499999 0.724999964 L85.396 9.808000004 L85.855 11.183000004 Q85.812747 11.844875004 85.73881 13.004942004 Q85.59093 15.325132004 85.43249800000001 17.816032004 Q85.210696 21.303222004 84.999438 24.634168004 Q84.73536 28.797905004 84.503 32.477249004 Q84.228358 36.826135004 84.006564 40.363178004 Q83.753085 44.405495004 83.573497 47.309845003999996 Q83.15099599999999 54.142815004 83.15099599999999 54.457001004 Q83.15099599999999 55.369999004 82.297 55.551002004 L83.45499699999999 55.598005004 L84.479 54.606003004 L84.831996 54.057003004 L87.739993 10.182003004 L87.321994 9.166003004 L86.431002 8.500000004 L29.984 0.083000004 Q29.41075 0.014249979999999995 28.76875 -0.02012497199999999 Q27.4847495 -0.088874996 27.1409995 0.083000004 Q26.5899989 0.358000044 26.213 1.495000004 Q26.314999280000002 0.9079998039999999 27.04900044 0.724999964 L27.0499999 0.724999964z" stroke="none"/><path fill="url(#id20)" d="M26.841 41.287999400000004 L28.723000000000003 3.3829994 L83.637 11.408999399999999 L80.618004 51.7740024 L26.841 41.287999400000004 L26.841 41.287999400000004z" stroke="none"/><path fill="none" d="M26.841 41.287999400000004 L28.723000000000003 3.3829994 L83.637 11.408999399999999 L80.618004 51.7740024 L26.841 41.287999400000004 L26.841 41.287999400000004z" stroke-width="1.0" stroke-linejoin="round" stroke="#aaaaaa"/><path fill="url(#id21)" d="M82.872 29.766 Q69.62786700000001 17.914001 53.306 17.914001 Q37.031479000000004 17.914001 26.219 28.279001 L26.2220002594 41.907000999999994 L80.882994 52.979001 L82.871992 29.766 L82.872 29.766z" stroke="none"/><path fill="none" d="M26.841 41.287999400000004 L28.723000000000003 3.3829994 L83.637 11.408999399999999 L80.618004 51.7740024 L26.841 41.287999400000004 L26.841 41.287999400000004z" stroke-width="1.0" stroke-linejoin="round" stroke="#878da0"/><path fill="#ffffff" fill-opacity="1.0" d="M44.5929982654 3.573 Q45.1996839 3.66032796 46.2639959 3.8136992899999997 Q48.392612199999995 4.1204415 50.680716999999994 4.45065646 Q53.884223999999996 4.9129801 56.948768 5.3561602 Q60.779728 5.9101763 64.173752 6.4025002 Q72.813171 7.655703600000001 77.9169 8.406843 Q84.29643999999999 9.345751 84.754997 9.4419995 Q86.118995 9.7272587 86.118995 10.9109993 Q86.118995 11.4991246 85.547995 17.772873 Q85.36956 19.733427 85.155435 22.027264 Q85.04837 23.174187 84.976997 23.928999 L84.749 26.137 Q84.77281199999999 25.498312000000002 84.808532 24.475124 Q84.879965 22.42875 84.939499 20.506249 Q85.022842 17.814751 85.070472 15.755499 Q85.129997 13.181437 85.129997 11.747999 Q85.129997 10.492215999999999 84.063995 10.225999 Q83.578621 10.104312 77.30081200000001 9.037279999999999 Q72.278572 8.1836567 63.798491999999996 6.7672492 Q60.467200999999996 6.2108293 56.708877 5.5853935 Q53.703018 5.085177 50.560931999999994 4.5635925 Q48.316139 4.1909576 46.2301443 3.8453074 Q45.1866834 3.67240529 44.591995 3.5739989737999998 L44.5929982654 3.573z" stroke="none"/><path fill="none" d="M86.431 8.50000032 L28.75 0.0 Q27.1776332 -0.35242718 26.569000199999998 0.7000001199999999 Q26.2374095 1.01218042 26.2140006 1.4950002199999999 L23.91600029 42.32500282 Q23.85083 43.69899282 25.225999799999997 44.007002820000004 L82.296997 55.55200282 Q82.439064 55.58389282 82.582 55.58700282 Q84.75316 55.71138282 84.832 54.05800282 L87.739998 10.18300282 Q87.80510699999999 8.80858382 86.431 8.50000032 L86.431 8.50000032z" stroke-width="1.0" stroke-linejoin="round" stroke="#aaaaaa"/><path fill="url(#id22)" d="M66.5810017 51.84599994 Q66.200005 52.7349999 66.66000408000001 53.4630005 L76.656006 55.6039994 Q76.396004 54.5859978 76.57800300000001 53.9340012 Q76.761002 53.2820008 77.54400700000001 52.9420006 L67.5480046 51.010001404 Q66.96200604 50.957 66.5810017 51.84599994 L66.5810017 51.84599994z" stroke="none"/><path fill="#f2f2f2" fill-opacity="1.0" d="M76.976997 53.402999799999996 L67.01999622 51.486 L66.652 52.07600015 L76.4150005 54.0830001 L76.978004 53.402999799999996 L76.976997 53.402999799999996z" stroke="none"/><path fill="url(#id23)" d="M77.6169994 54.6220012 L77.05099750000001 55.222999200000004 L76.65600085 55.6039997 Q76.102 55.2270008 76.47300220000001 54.0380016 Q76.8080013 52.9700008027 77.6049984 52.966003 L77.6169994 54.6220012 L77.6169994 54.6220012z" stroke-width="1.0" stroke-linejoin="round" stroke="#aaaaaa"/><path fill="url(#id24)" d="M26.11000052 43.70599994 Q25.729 44.5949999 26.189000999999998 45.324 L36.024001999999996 47.414 Q35.923 46.4460016 36.106003 45.7940012 Q36.289005 45.1420008 37.073002 44.8020006 L27.076002 42.870001404 Q26.491002939999998 42.817 26.110002429999998 43.70599994 L26.11000052 43.70599994z" stroke="none"/><path fill="#f2f2f2" fill-opacity="1.0" d="M36.563 45.2169993 L26.605999100000002 43.299 L25.942999 43.81700156 L36.002998 45.8980028 L36.563999 45.2170031 L36.563 45.2169993z" stroke="none"/><path fill="none" d="M66.5810017 51.84599994 Q66.200005 52.7349999 66.66000408000001 53.4630005 L76.656006 55.6039994 Q76.396004 54.5859978 76.57800300000001 53.9340012 Q76.761002 53.2820008 77.54400700000001 52.9420006 L67.5480046 51.010001404 Q66.96200604 50.957 66.5810017 51.84599994 L66.5810017 51.84599994z" stroke-width="1.0" stroke-linejoin="round" stroke="#aaaaaa"/><path fill="none" d="M26.11000052 43.70599994 Q25.729 44.5949999 26.189000999999998 45.324 L36.024001999999996 47.414 Q35.923 46.4460016 36.106003 45.7940012 Q36.289005 45.1420008 37.073002 44.8020006 L27.076002 42.870001404 Q26.491002939999998 42.817 26.110002429999998 43.70599994 L26.11000052 43.70599994z" stroke-width="1.0" stroke-linejoin="round" stroke="#aaaaaa"/><path fill="url(#id25)" d="M37.1279985 46.3930015 L37.746998 46.6270027 L37.408996699999996 47.2680015 L36.1859933 47.4650001 Q35.630993 47.0880012 36.00299465 45.899001999999996 Q36.33699429999999 44.8300018027 37.133995199999994 44.826004 L37.127994599999994 46.3940048 L37.1279985 46.3930015z" stroke-width="1.0" stroke-linejoin="round" stroke="#aaaaaa"/></g><g transform="translate(652.0440000000001 93.90699999999998)"><path fill="#67676d" fill-opacity="1.0" d="M44.712 65.316 Q44.712 70.486 39.542 70.486 L5.171 70.486 Q0.0 70.486 0.0 65.316 L0.0 5.17 Q0.0 0.0 5.171 0.0 L39.542 0.0 Q44.711998 0.0 44.711998 5.17 L44.711998 65.316 L44.712 65.316z" stroke-width="1.0" stroke-linejoin="round" stroke="#67676d"/><path fill="url(#id26)" d="M43.6240002 64.1669974 Q43.6240002 69.1299954 38.662000199999994 69.1299954 L6.2020002 69.1299954 Q1.35639186 69.1299954 1.2400002 64.1669974 L1.2400002 6.3060004 Q1.2400002 1.3430004 6.2020002 1.3430004 L38.661997199999995 1.3430004 Q43.6240002 1.3430004 43.6240002 6.3060004 L43.6240002 64.1679974 L43.6240002 64.1669974z" stroke-width="1.0" stroke-linejoin="round" stroke="#cccccc"/><path fill="url(#id27)" d="M28.764999 7.362 Q28.764999 8.720000299999999 27.407999 8.720000299999999 L18.2800003 8.720000299999999 Q16.921001 8.720000299999999 16.921001 7.3620005 Q16.921001 6.0040007 18.2800003 6.0040007 L27.407001 6.0040007 Q28.764001 6.0040007 28.764001 7.3620005 L28.764999 7.362z" stroke-width="1.0" stroke-linejoin="round" stroke="#000000"/><path fill="url(#id28)" d="M26.974001 61.240000599999995 Q26.974001 65.857001 22.3560006 65.857001 Q17.739 65.857001 17.739 61.240000599999995 Q17.739 56.623 22.3560006 56.623 Q26.974001 56.623 26.974001 61.240000599999995 L26.974001 61.240000599999995z" stroke="none"/><path fill="none" d="M24.561001 62.592998 Q24.561001 63.4449993 23.710001000000002 63.4449993 L21.00200083 63.4449993 Q20.151001 63.4449993 20.151001 62.592998 L20.151001 59.8839985 Q20.151001 59.034 21.00200083 59.034 L23.710001000000002 59.034 Q24.561001 59.034 24.561001 59.8839985 L24.561001 62.592998 L24.561001 62.592998z" stroke-width="1.0" stroke-linejoin="round" stroke="#717177"/><path fill="url(#id29)" d="M40.199999999999996 55.597001 L4.742 55.597001 L4.742 11.887001 L40.199999999999996 11.887001 L40.199999999999996 55.597001 L40.199999999999996 55.597001z" stroke-width="1.0" stroke-linejoin="round" stroke="#000000"/></g><g transform="translate(471.98550000000006 280.62850000000003)"><path fill="#828999" fill-opacity="1.0" d="M-0.13100001 25.603 L29.137999989999997 30.4530004 L29.137999989999997 82.715003 L-0.13100001 76.97 L-0.13100001 25.603 L-0.13100001 25.603z" stroke="none"/><path fill="#757a8a" fill-opacity="1.0" d="M56.570999 10.608 L28.6 30.363001 L29.138000100000003 82.48400000000001 L56.628997 61.983999999999995 L56.570999 10.609001358 L56.570999 10.608z" stroke="none"/><path fill="#6d7384" fill-opacity="1.0" d="M56.629 56.7 L29.261 77.458 L0.0 71.497001 L0.0 73.005004 L29.255 79.13400200000001 L56.835 58.7060005 L56.629 56.7 L56.629 56.7z" stroke="none"/><path fill="none" d="M28.565 30.420999000000002 L0.0 25.307000000000002 L0.0 76.783006 L29.261 82.744005 L56.628998 61.984002000000004 L56.628998 10.544 L28.565 30.420999000000002 L28.565 30.420999000000002z" stroke-width="1.0" stroke-linejoin="round" stroke="#757575"/><path fill="#828999" fill-opacity="1.0" d="M-0.13100001 20.09 L29.137999989999997 25.662000499999998 L29.137999989999997 77.199997 L-0.13100001 71.458 L-0.13100001 20.09 L-0.13100001 20.09z" stroke="none"/><path fill="#757a8a" fill-opacity="1.0" d="M56.570999 5.096 L28.6 24.85 L29.138000100000003 76.974 L56.629001 56.47 L56.570999 5.096 L56.570999 5.096z" stroke="none"/><path fill="#949ba8" fill-opacity="1.0" d="M56.24100302 5.096 L29.138001019999997 25.261 L0.07800102 19.788 L28.23500102 0.0 L56.24100302 5.096 L56.24100302 5.096z" stroke="none"/><path fill="#9ea4ad" fill-opacity="1.0" d="M30.171 25.776 L56.469 5.5920002 L56.228 4.95 L29.104 24.315002 Q28.735 24.590999 28.166 24.482001 Q28.039434 24.45827 23.609814 23.72039 Q20.068762 23.130527 13.945 22.112125 Q11.538893 21.711982 8.814867 21.25912 Q6.66983 20.902515 4.349188 20.516795000000002 Q2.63222 20.231419 1.1951642 19.992607 Q0.43434376 19.866173 0.0 19.794001 Q0.43939066 20.409437 1.2088946 20.555602 Q2.748117 20.847972 4.398469 21.161563 Q6.708661 21.600535999999998 8.913059 22.019617999999998 Q11.668255 22.543414 14.097 23.005499999999998 Q20.280127 24.181884 23.85028 24.863689 Q28.312624 25.715877 28.413 25.742 Q28.704 25.817999999999998 28.773 26.197001999999998 L28.773 77.066005 Q29.851002 76.839 29.851002 75.72200000000001 Q29.851002 74.652255 29.85141 71.76266 Q29.851574 70.60464 29.851852 68.7971 Q29.851982 67.95765 29.852114 67.1182 Q29.852253 66.222976 29.852392 65.32775 Q29.852747 63.05142 29.852985 61.469714 Q29.85332 59.246460000000006 29.853586 57.338092 Q29.854252 52.559035 29.854628 48.7145 Q29.855083 44.033240000000006 29.855152 40.37778 Q29.85523 36.183643000000004 29.8548 33.248748 Q29.853792 26.406944 29.850002 26.297 Q29.838003 25.936999999999998 30.170002 25.776 L30.171 25.776z" stroke="none"/><path fill="none" d="M3.084 17.681 L3.084 17.681z" stroke-width="1.0" stroke-linejoin="round" stroke="#aaaaaa"/><path fill="none" d="M32.065 23.056 L32.065 23.056z" stroke-width="1.0" stroke-linejoin="round" stroke="#aaaaaa"/><path fill="none" d="M32.065 42.567 L32.065 42.567z" stroke-width="1.0" stroke-linejoin="round" stroke="#757575"/><path fill="#6d7384" fill-opacity="1.0" d="M56.629 38.955001814697304 L29.261 59.712002 L0.0 53.752998000000005 L0.0 55.260998 L29.255 61.389999 L56.835 40.9609985 L56.628998 38.954998 L56.629 38.955001814697304z" stroke="none"/><path fill="none" d="M0.0 53.752998000000005 L29.261 59.71199800000001 L56.628998 38.954998" stroke-width="1.0" stroke-linejoin="round" stroke="#757575"/><path fill="#6d7384" fill-opacity="1.0" d="M56.629 21.6760008146973 L29.261 42.435002 L0.0 36.473999 L0.0 37.982997999999995 L29.255 44.109997 L56.835 23.681997499999998 L56.628998 21.675997 L56.629 21.6760008146973z" stroke="none"/><path fill="none" d="M0.0 36.473999 L29.261 42.433999 L56.628998 21.675999" stroke-width="1.0" stroke-linejoin="round" stroke="#757575"/><path fill="none" d="M28.565 0.0 L0.0 19.794 L0.0 71.268 L29.261 77.229 L56.628998 56.468994 L56.628998 5.032 L28.565 0.0 L28.565 0.0z" stroke-width="1.0" stroke-linejoin="round" stroke="#757575"/><path fill="url(#id30)" d="M25.8670005 79.51099927 Q26.5192279 79.41043622000001 27.203001 79.343 Q27.2180003 79.48399884 27.2180003 79.48199994000001 Q27.2180003 81.1460014 25.430000200000002 81.1460014 Q24.14562403 81.1460014 23.741001 80.00100476 Q24.7901019 79.67399365 25.868001800000002 79.5110069 L25.8670005 79.51099927z" stroke="none"/><path fill="#616672" fill-opacity="1.0" d="M27.0189996 79.1630015 Q27.0189996 80.8290018 25.429998899999998 80.8290018 Q23.842999 80.8290018 23.842999 79.1630015 Q23.842999 77.499 25.429998899999998 77.499 Q27.0189996 77.499 27.0189996 79.1630015 L27.0189996 79.1630015z" stroke="none"/><path fill="#878da0" fill-opacity="1.0" d="M26.6819994 79.16299880000001 Q26.6819994 80.55399770000001 25.4299985 80.55399770000001 Q24.180998 80.55399770000001 24.180998 79.16299880000001 Q24.180998 77.772 25.4299985 77.772 Q26.6819994 77.772 26.6819994 79.16299880000001 L26.6819994 79.16299880000001z" stroke="none"/><path fill="#e1e1e5" fill-opacity="1.0" d="M25.566999499999998 78.14199513 Q25.934047699999997 78.14199513 26.232999799999998 78.3669936 Q25.908374799999997 77.94299 25.428998999999997 77.94299 Q24.362999 77.94299 24.362999 79.1619918 Q24.362999 79.2002761 24.378999748 79.3259932 Q24.506999999999998 78.14199513 25.566999499999998 78.14199513 L25.566999499999998 78.14199513z" stroke="none"/></g><path fill="none" d="M340.60000000000014 169.0455 L486.14275000000004 280.62850000000003" stroke-width="1.0" stroke-linejoin="round" stroke="#000000"/><path fill="none" d="M500.30000000000007 167.79649999999998 L500.30000000000007 280.62850000000003" stroke-width="1.0" stroke-linejoin="round" stroke="#000000"/><path fill="none" d="M663.2220000000001 164.393 L514.45725 280.62850000000003" stroke-width="1.0" stroke-linejoin="round" stroke="#000000"/><g transform="translate(615.28 288.35450000000003)"><path fill="url(#id31)" d="M25.625 65.736 Q25.625 67.007004 22.479 67.007004 Q19.333 67.007004 19.333 65.736 L19.333 25.715 L25.625999299999997 25.715 L25.625999299999997 65.736 L25.625 65.736z" stroke-width="1.0" stroke-linejoin="round" stroke="#8a8d94"/><path fill="url(#id32)" d="M25.625 25.7149999 Q25.625 26.9859998 22.479 26.9859998 Q19.333 26.9859998 19.333 25.7149999 Q19.333 24.444 22.479 24.444 Q25.625 24.444 25.625 25.7149999 L25.625 25.7149999z" stroke-width="1.0" stroke-linejoin="round" stroke="#757a8a"/><path fill="url(#id33)" d="M2.4690000999999997 66.9800036 Q1.1980001 66.9800036 1.1980001 63.834 Q1.1980001 60.688 2.4690000999999997 60.688 L42.4900001 60.688 L42.4900001 66.981003 L2.4690000999999997 66.981003 L2.4690000999999997 66.9800036z" stroke-width="1.0" stroke-linejoin="round" stroke="#8a8d94"/><path fill="url(#id34)" d="M42.4899999 66.9800036 Q41.219 66.9800036 41.219 63.834 Q41.219 60.688 42.4899999 60.688 Q43.7609998 60.688 43.7609998 63.834 Q43.7609998 66.979996 42.4899999 66.979996 L42.4899999 66.9800036z" stroke-width="1.0" stroke-linejoin="round" stroke="#8a8d94"/><path fill="url(#id35)" d="M26.718 63.8529967 Q26.718 60.414997 28.108 60.414997 L16.603999899999998 60.414997 Q15.215 60.414997 15.215 63.8529967 Q15.215 67.2910003 16.603999899999998 67.2910003 L28.108 67.2910003 Q26.718 67.2910003 26.718 63.8529967 L26.718 63.8529967z" stroke="none"/><path fill="#ffffff" fill-opacity="1.0" d="M15.82900095 61.467 L27.128000999999998 61.467 L26.728001 62.801999099999996 L15.296 62.801999099999996 L15.82899904 61.467 L15.82900095 61.467z" stroke="none"/><path fill="none" d="M26.718 63.8529967 Q26.718 60.414997 28.108 60.414997 L16.603999899999998 60.414997 Q15.215 60.414997 15.215 63.8529967 Q15.215 67.2910003 16.603999899999998 67.2910003 L28.108 67.2910003 Q26.718 67.2910003 26.718 63.8529967 L26.718 63.8529967z" stroke-width="1.0" stroke-linejoin="round" stroke="#8a8d94"/><path fill="url(#id36)" d="M44.84 43.879002 Q44.84 46.750023 38.273624 48.780003 Q31.70718 50.810001 22.42 50.810001 Q13.133397 50.810001 6.5667496 48.780003 Q0.0 46.7499695 0.0 43.879002 L0.0 33.689003 L44.84 33.689003 L44.84 43.879002 L44.84 43.879002z" stroke="none"/><path fill="#f2f2f2" fill-opacity="1.0" d="M6.504 48.759999 Q9.9719608 49.839703 14.562999999999999 50.370999 L14.562999999999999 33.688 L6.504 33.688 L6.504 48.759999 L6.504 48.759999z" stroke="none"/><path fill="none" d="M44.84 43.879002 Q44.84 46.750023 38.273624 48.780003 Q31.70718 50.810001 22.42 50.810001 Q13.133397 50.810001 6.5667496 48.780003 Q0.0 46.7499695 0.0 43.879002 L0.0 33.689003 L44.84 33.689003 L44.84 43.879002 L44.84 43.879002z" stroke-width="1.0" stroke-linejoin="round" stroke="#8a8d94"/><path fill="#a1a6af" fill-opacity="1.0" d="M44.84 34.0960003 Q44.84 36.967022 38.273624 38.997001 Q31.70718 41.027 22.42 41.027 Q13.133397 41.027 6.5667496 38.997001 Q0.0 36.966968 0.0 34.0960003 Q0.0 31.226281800000002 6.5667505 29.1962505 Q13.134207 27.166 22.42 27.166 Q31.706371 27.166 38.27363 29.1962505 Q44.84 31.226228300000002 44.84 34.0960003 L44.84 34.0960003z" stroke-width="1.0" stroke-linejoin="round" stroke="#8a8d94"/><path fill="#5f98f4" fill-opacity="1.0" d="M42.530998000000004 33.449002 Q42.530998000000004 35.91803 36.640625 37.664001999999996 Q30.750148 39.41 22.419998 39.41 Q14.090423999999999 39.41 8.199749 37.664001999999996 Q2.308998 35.917977 2.308998 33.449002 L2.308998 24.681002 L42.531998 24.681002 L42.531998 33.449002 L42.530998000000004 33.449002z" stroke-width="1.0" stroke-linejoin="round" stroke="#4f77b2"/><path fill="#5f98f4" fill-opacity="1.0" d="M42.530998000000004 25.0310004 Q42.530998000000004 27.500702 36.640625 29.246876 Q30.750412 30.993000000000002 22.419998 30.993000000000002 Q14.090164000000001 30.993000000000002 8.199749 29.246876 Q2.308998 27.500650999999998 2.308998 25.0310004 Q2.308998 22.5614455 8.199749 20.8156245 Q14.089844 19.07 22.419998 19.07 Q30.750732 19.07 36.640625 20.8156245 Q42.530998000000004 22.561394 42.530998000000004 25.0310004 L42.530998000000004 25.0310004z" stroke-width="1.0" stroke-linejoin="round" stroke="#4f77b2"/><path fill="url(#id37)" d="M44.84 30.297001 Q44.84 33.166866 38.273624 35.197250000000004 Q31.706062 37.228 22.42 37.228 Q13.133956 37.228 6.5667496 35.197624000000005 Q0.0 33.167392 0.0 30.297001 L0.0 20.107002 L44.84 20.107002 L44.84 30.297001 L44.84 30.297001z" stroke="none"/><path fill="#f2f2f2" fill-opacity="1.0" d="M6.504 35.175998 Q9.987254 36.260467000000006 14.562999999999999 36.786998 L14.562999999999999 20.106 L6.504 20.106 L6.504 35.175002 L6.504 35.175998z" stroke="none"/><path fill="none" d="M44.84 30.297001 Q44.84 33.166866 38.273624 35.197250000000004 Q31.706062 37.228 22.42 37.228 Q13.133956 37.228 6.5667496 35.197624000000005 Q0.0 33.167392 0.0 30.297001 L0.0 20.107002 L44.84 20.107002 L44.84 30.297001 L44.84 30.297001z" stroke-width="1.0" stroke-linejoin="round" stroke="#8a8d94"/><path fill="#a1a6af" fill-opacity="1.0" d="M44.84 20.5140003 Q44.84 23.383868 38.273624 25.41425 Q31.706062 27.445 22.42 27.445 Q13.133956 27.445 6.5667496 25.414626 Q0.0 23.38439 0.0 20.5140003 Q0.0 17.643128 6.5667505 15.613501 Q13.133088 13.584 22.42 13.584 Q31.707489 13.584 38.27363 15.613499 Q44.84 17.6430744 44.84 20.5140003 L44.84 20.5140003z" stroke-width="1.0" stroke-linejoin="round" stroke="#8a8d94"/><path fill="#5f98f4" fill-opacity="1.0" d="M42.530998000000004 19.809 Q42.530998000000004 22.278700999999998 36.640625 24.024875 Q30.750412 25.771 22.419998 25.771 Q14.090164000000001 25.771 8.199749 24.024875 Q2.308998 22.27865 2.308998 19.809 L2.308998 11.041 L42.531998 11.041 L42.531998 19.809 L42.530998000000004 19.809z" stroke-width="1.0" stroke-linejoin="round" stroke="#4f77b2"/><path fill="#5f98f4" fill-opacity="1.0" d="M42.530998000000004 11.391 Q42.530998000000004 13.860700999999999 36.640625 15.606874999999999 Q30.750412 17.353001 22.419998 17.353001 Q14.090164000000001 17.353001 8.199749 15.606877 Q2.308998 13.860651999999998 2.308998 11.391001 Q2.308998 8.922023 8.199749 7.1760008 Q14.090426 5.430001 22.419998 5.430001 Q30.750148 5.430001 36.640625 7.1760008 Q42.530998000000004 8.9219715 42.530998000000004 11.391001 L42.530998000000004 11.391z" stroke-width="1.0" stroke-linejoin="round" stroke="#4f77b2"/><path fill="url(#id38)" d="M44.84 16.714001 Q44.84 19.584446 38.273624 21.614626 Q31.70662 23.645001999999998 22.42 23.645001999999998 Q13.133956 23.645001999999998 6.5667496 21.614626 Q0.0 19.584391 0.0 16.714001 L0.0 6.523 L44.84 6.523 L44.84 16.713 L44.84 16.714001z" stroke="none"/><path fill="#f2f2f2" fill-opacity="1.0" d="M6.504 21.594 Q9.9796207 22.676091 14.562999999999999 23.205 L14.562999999999999 6.523 L6.504 6.523 L6.504 21.592999 L6.504 21.594z" stroke="none"/><path fill="none" d="M44.84 16.714001 Q44.84 19.584446 38.273624 21.614626 Q31.70662 23.645001999999998 22.42 23.645001999999998 Q13.133956 23.645001999999998 6.5667496 21.614626 Q0.0 19.584391 0.0 16.714001 L0.0 6.523 L44.84 6.523 L44.84 16.713 L44.84 16.714001z" stroke-width="1.0" stroke-linejoin="round" stroke="#8a8d94"/><path fill="#cccccc" fill-opacity="1.0" d="M44.84 6.931 Q44.84 9.801253 38.273624 11.830626 Q31.707237 13.860001 22.42 13.860001 Q13.133338 13.860001 6.5667496 11.830626 Q0.0 9.801201 0.0 6.9310007 Q0.0 4.06061 6.5667505 2.0303755 Q13.133957 0.0 22.42 0.0 Q31.70662 0.0 38.27363 2.030375 Q44.84 4.060555 44.84 6.931 L44.84 6.931z" stroke-width="1.0" stroke-linejoin="round" stroke="#8a8d94"/></g><path fill="none" d="M528.6145 322.0 L615.28 322.0" stroke-width="1.0" stroke-linejoin="round" stroke="#000000"/><g transform="translate(436.0 70.50350000000002)"><clipPath id="id39"><path d="M0 0 L150.0 0 L150.0 40.0 L0 40.0z"/></clipPath><text font-size="12" clip-path="url(#id39)" text-decoration="none" fill="#000000" font-family="Arial,Arial" font-style="normal" font-weight="normal"><tspan x="2.0" xml:space="preserve" y="13.0" textLength="132.0">Desktop / Mobile Clients</tspan></text></g><g transform="translate(431.0 194.0)"><clipPath id="id40"><path d="M0 0 L150.0 0 L150.0 40.0 L0 40.0z"/></clipPath><text font-size="12" clip-path="url(#id40)" text-decoration="none" fill="#000000" font-family="Arial,Arial" font-style="normal" font-weight="normal"><tspan x="2.0" xml:space="preserve" y="13.0" textLength="62.0">WebSocket</tspan></text></g><g transform="translate(425.30000000000007 308.0)"><clipPath id="id41"><path d="M0 0 L150.0 0 L150.0 40.0 L0 40.0z"/></clipPath><text font-size="12" clip-path="url(#id41)" text-decoration="none" fill="#000000" font-family="Arial,Arial" font-style="normal" font-weight="normal"><tspan x="2.0" xml:space="preserve" y="13.0" textLength="40.0">node.js</tspan><tspan x="2.0" xml:space="preserve" y="27.0" textLength="32.0">Redis</tspan></text></g><g transform="translate(666.0 308.0)"><clipPath id="id42"><path d="M0 0 L150.0 0 L150.0 40.0 L0 40.0z"/></clipPath><text font-size="12" clip-path="url(#id42)" text-decoration="none" fill="#000000" font-family="Arial,Arial" font-style="normal" font-weight="normal"><tspan x="2.0" xml:space="preserve" y="13.0" textLength="40.0">MySQL</tspan></text></g><path fill="none" d="M316.30000000000007 233.5 Q428.5278279522003 249.8100935072519 503.30000000000007 249.5 Q575.7269551330428 249.1996325247523 684.3000000000001 232.5" stroke-width="1.0" stroke-linejoin="round" stroke="#666666"/><g transform="translate(686.0 224.37150000000003)"><clipPath id="id43"><path d="M0 0 L150.0 0 L150.0 40.0 L0 40.0z"/></clipPath><text font-size="12" clip-path="url(#id43)" text-decoration="none" fill="#000000" font-family="Arial,Arial" font-style="normal" font-weight="normal"><tspan x="2.0" xml:space="preserve" y="13.0" textLength="41.0">Internet</tspan></text></g></g></svg>